REM DIRINDEX 1\2\4\18,1\2\4\19,1\2\5\20,1\2\5\21,1\2\6\22,1\2\6\23,1\2\7\24,1\2\7\25,1\2\8\26,1\2\8\27,1\2\9\28,1\2\9\29,1\2\10\30,1\3\11\31,1\3\11\32,1\3\11\33,1\3\11\34,1\3\11\35,1\3\12\36,1\3\12\37,1\3\12\38,1\3\12\39,1\3\12\40,1\3\13\41,1\3\13\42,1\3\13\43,1\3\13\44,1\3\13\45,1\3\14\46,1\3\14\47,1\3\14\48,1\3\14\49,1\3\15\50,1\3\15\51,1\3\15\52,1\3\15\53,1\3\15\54,1\3\16\55,1\3\16\56,1\3\16\57,1\3\16\58,1\3\16\59,1\3\17\60,1\3\17\61
REM DIRNAME "folder01","folder02","folder03","folder04","folder05","folder06","folder07","folder08","folder09","folder10","folder11","folder12","folder13","folder14","folder15","folder16","folder17","folder18","folder19","folder20","folder21","folder22","folder23","folder24","folder25","folder26","folder27","folder28","folder29","folder30","folder31","folder32","folder33","folder34","folder35","folder36","folder37","folder38","folder39","folder40","folder41","folder42","folder43","folder44","folder45","folder46","folder47","folder48","folder49","folder50","folder51","folder52","folder53","folder54","folder55","folder56","folder57","folder58","folder59","folder60","folder61"
TITLE ""
FILE "TOEIC LR Kinnojyukugo_01.mp3" MP3
  TRACK 01 AUDIO
    TITLE "0:"
    INDEX 01 00:00:00
  TRACK 02 AUDIO
    TITLE "31:cjc160_1599"
    INDEX 01 00:00:12
  TRACK 03 AUDIO
    TITLE "0:"
    INDEX 01 00:01:25
  TRACK 04 AUDIO
    TITLE "32:cjc160_1600"
    INDEX 01 00:01:57
  TRACK 05 AUDIO
    TITLE "0:"
    INDEX 01 00:02:68
  TRACK 06 AUDIO
    TITLE "33:cjc160_1601"
    INDEX 01 00:03:28
  TRACK 07 AUDIO
    TITLE "0:"
    INDEX 01 00:05:13
  TRACK 08 AUDIO
    TITLE "34:cjc160_1602"
    INDEX 01 00:05:55
  TRACK 09 AUDIO
    TITLE "0:"
    INDEX 01 00:07:42
  TRACK 10 AUDIO
    TITLE "35:cjc160_1603"
    INDEX 01 00:07:67
  TRACK 11 AUDIO
    TITLE "0:"
    INDEX 01 00:09:54
  TRACK 12 AUDIO
    TITLE "31:cjc160_1604"
    INDEX 01 00:10:58
  TRACK 13 AUDIO
    TITLE "0:"
    INDEX 01 00:12:06
  TRACK 14 AUDIO
    TITLE "32:cjc160_1605"
    INDEX 01 00:12:43
  TRACK 15 AUDIO
    TITLE "0:"
    INDEX 01 00:15:16
  TRACK 16 AUDIO
    TITLE "33:cjc160_1606"
    INDEX 01 00:15:55
  TRACK 17 AUDIO
    TITLE "0:"
    INDEX 01 00:17:52
  TRACK 18 AUDIO
    TITLE "34:cjc160_1607"
    INDEX 01 00:18:16
  TRACK 19 AUDIO
    TITLE "0:"
    INDEX 01 00:20:01
  TRACK 20 AUDIO
    TITLE "35:cjc160_1608"
    INDEX 01 00:20:29
  TRACK 21 AUDIO
    TITLE "0:"
    INDEX 01 00:22:14
  TRACK 22 AUDIO
    TITLE "31:cjc160_1609"
    INDEX 01 00:23:15
  TRACK 23 AUDIO
    TITLE "0:"
    INDEX 01 00:24:42
  TRACK 24 AUDIO
    TITLE "32:cjc160_1610"
    INDEX 01 00:25:08
  TRACK 25 AUDIO
    TITLE "0:"
    INDEX 01 00:28:54
  TRACK 26 AUDIO
    TITLE "33:cjc160_1611"
    INDEX 01 00:29:14
  TRACK 27 AUDIO
    TITLE "0:"
    INDEX 01 00:31:54
  TRACK 28 AUDIO
    TITLE "34:cjc160_1612"
    INDEX 01 00:32:18
  TRACK 29 AUDIO
    TITLE "0:"
    INDEX 01 00:35:30
  TRACK 30 AUDIO
    TITLE "35:cjc160_1613"
    INDEX 01 00:35:64
  TRACK 31 AUDIO
    TITLE "0:"
    INDEX 01 00:39:03
  TRACK 32 AUDIO
    TITLE "31:cjc160_1614"
    INDEX 01 00:40:04
  TRACK 33 AUDIO
    TITLE "0:"
    INDEX 01 00:41:29
  TRACK 34 AUDIO
    TITLE "32:cjc160_1615"
    INDEX 01 00:41:70
  TRACK 35 AUDIO
    TITLE "0:"
    INDEX 01 00:43:67
  TRACK 36 AUDIO
    TITLE "33:cjc160_1616"
    INDEX 01 00:44:31
  TRACK 37 AUDIO
    TITLE "0:"
    INDEX 01 00:47:39
  TRACK 38 AUDIO
    TITLE "34:cjc160_1617"
    INDEX 01 00:48:01
  TRACK 39 AUDIO
    TITLE "0:"
    INDEX 01 00:51:53
  TRACK 40 AUDIO
    TITLE "35:cjc160_1618"
    INDEX 01 00:52:05
  TRACK 41 AUDIO
    TITLE "0:"
    INDEX 01 00:55:56
  TRACK 42 AUDIO
    TITLE "31:cjc160_1619"
    INDEX 01 00:56:58
  TRACK 43 AUDIO
    TITLE "0:"
    INDEX 01 00:58:23
  TRACK 44 AUDIO
    TITLE "32:cjc160_1620"
    INDEX 01 00:58:61
  TRACK 45 AUDIO
    TITLE "0:"
    INDEX 01 01:01:59
  TRACK 46 AUDIO
    TITLE "33:cjc160_1621"
    INDEX 01 01:02:23
  TRACK 47 AUDIO
    TITLE "0:"
    INDEX 01 01:05:14
  TRACK 48 AUDIO
    TITLE "34:cjc160_1622"
    INDEX 01 01:05:55
  TRACK 49 AUDIO
    TITLE "0:"
    INDEX 01 01:08:12
  TRACK 50 AUDIO
    TITLE "35:cjc160_1623"
    INDEX 01 01:08:37
  TRACK 51 AUDIO
    TITLE "0:"
    INDEX 01 01:10:70
  TRACK 52 AUDIO
    TITLE "31:cjc160_1624"
    INDEX 01 01:11:69
  TRACK 53 AUDIO
    TITLE "0:"
    INDEX 01 01:13:07
  TRACK 54 AUDIO
    TITLE "32:cjc160_1625"
    INDEX 01 01:13:45
  TRACK 55 AUDIO
    TITLE "0:"
    INDEX 01 01:14:60
  TRACK 56 AUDIO
    TITLE "33:cjc160_1626"
    INDEX 01 01:15:22
  TRACK 57 AUDIO
    TITLE "0:"
    INDEX 01 01:18:12
  TRACK 58 AUDIO
    TITLE "34:cjc160_1627"
    INDEX 01 01:18:52
  TRACK 59 AUDIO
    TITLE "0:"
    INDEX 01 01:20:54
  TRACK 60 AUDIO
    TITLE "35:cjc160_1628"
    INDEX 01 01:21:05
  TRACK 61 AUDIO
    TITLE "0:"
    INDEX 01 01:23:08
  TRACK 62 AUDIO
    TITLE "31:cjc160_1629"
    INDEX 01 01:24:11
  TRACK 63 AUDIO
    TITLE "0:"
    INDEX 01 01:25:50
  TRACK 64 AUDIO
    TITLE "32:cjc160_1630"
    INDEX 01 01:26:12
  TRACK 65 AUDIO
    TITLE "0:"
    INDEX 01 01:27:60
  TRACK 66 AUDIO
    TITLE "33:cjc160_1631"
    INDEX 01 01:28:28
  TRACK 67 AUDIO
    TITLE "0:"
    INDEX 01 01:32:30
  TRACK 68 AUDIO
    TITLE "34:cjc160_1632"
    INDEX 01 01:32:69
  TRACK 69 AUDIO
    TITLE "0:"
    INDEX 01 01:35:17
  TRACK 70 AUDIO
    TITLE "35:cjc160_1633"
    INDEX 01 01:35:40
  TRACK 71 AUDIO
    TITLE "0:"
    INDEX 01 01:37:61
  TRACK 72 AUDIO
    TITLE "31:cjc160_1634"
    INDEX 01 01:38:60
  TRACK 73 AUDIO
    TITLE "0:"
    INDEX 01 01:40:00
  TRACK 74 AUDIO
    TITLE "32:cjc160_1635"
    INDEX 01 01:40:37
  TRACK 75 AUDIO
    TITLE "0:"
    INDEX 01 01:43:01
  TRACK 76 AUDIO
    TITLE "33:cjc160_1636"
    INDEX 01 01:43:40
  TRACK 77 AUDIO
    TITLE "0:"
    INDEX 01 01:46:40
  TRACK 78 AUDIO
    TITLE "34:cjc160_1637"
    INDEX 01 01:47:10
  TRACK 79 AUDIO
    TITLE "0:"
    INDEX 01 01:49:25
  TRACK 80 AUDIO
    TITLE "35:cjc160_1638"
    INDEX 01 01:49:50
  TRACK 81 AUDIO
    TITLE "0:"
    INDEX 01 01:51:67
  TRACK 82 AUDIO
    TITLE "31:cjc160_1639"
    INDEX 01 01:52:68
  TRACK 83 AUDIO
    TITLE "0:"
    INDEX 01 01:53:66
  TRACK 84 AUDIO
    TITLE "32:cjc160_1640"
    INDEX 01 01:54:36
  TRACK 85 AUDIO
    TITLE "0:"
    INDEX 01 01:58:16
  TRACK 86 AUDIO
    TITLE "33:cjc160_1641"
    INDEX 01 01:58:55
  TRACK 87 AUDIO
    TITLE "0:"
    INDEX 01 02:01:16
  TRACK 88 AUDIO
    TITLE "34:cjc160_1642"
    INDEX 01 02:01:55
  TRACK 89 AUDIO
    TITLE "0:"
    INDEX 01 02:03:56
  TRACK 90 AUDIO
    TITLE "35:cjc160_1643"
    INDEX 01 02:04:05
  TRACK 91 AUDIO
    TITLE "0:"
    INDEX 01 02:06:06
  TRACK 92 AUDIO
    TITLE "31:cjc160_1644"
    INDEX 01 02:07:05
  TRACK 93 AUDIO
    TITLE "0:"
    INDEX 01 02:08:22
  TRACK 94 AUDIO
    TITLE "32:cjc160_1645"
    INDEX 01 02:08:59
  TRACK 95 AUDIO
    TITLE "0:"
    INDEX 01 02:09:74
  TRACK 96 AUDIO
    TITLE "33:cjc160_1646"
    INDEX 01 02:10:39
  TRACK 97 AUDIO
    TITLE "0:"
    INDEX 01 02:12:59
  TRACK 98 AUDIO
    TITLE "34:cjc160_1647"
    INDEX 01 02:13:23
  TRACK 99 AUDIO
    TITLE "0:"
    INDEX 01 02:15:52
  TRACK 100 AUDIO
    TITLE "35:cjc160_1648"
    INDEX 01 02:16:02
  TRACK 101 AUDIO
    TITLE "0:"
    INDEX 01 02:18:32
  TRACK 102 AUDIO
    TITLE "31:cjc160_1649"
    INDEX 01 02:19:34
  TRACK 103 AUDIO
    TITLE "0:"
    INDEX 01 02:20:37
  TRACK 104 AUDIO
    TITLE "32:cjc160_1650"
    INDEX 01 02:21:15
  TRACK 105 AUDIO
    TITLE "0:"
    INDEX 01 02:26:38
  TRACK 106 AUDIO
    TITLE "33:cjc160_1651"
    INDEX 01 02:27:02
  TRACK 107 AUDIO
    TITLE "0:"
    INDEX 01 02:28:56
  TRACK 108 AUDIO
    TITLE "34:cjc160_1652"
    INDEX 01 02:29:20
  TRACK 109 AUDIO
    TITLE "0:"
    INDEX 01 02:30:65
  TRACK 110 AUDIO
    TITLE "35:cjc160_1653"
    INDEX 01 02:31:15
  TRACK 111 AUDIO
    TITLE "0:"
    INDEX 01 02:32:60
  TRACK 112 AUDIO
    TITLE "31:cjc160_1654"
    INDEX 01 02:33:59
  TRACK 113 AUDIO
    TITLE "0:"
    INDEX 01 02:35:05
  TRACK 114 AUDIO
    TITLE "32:cjc160_1655"
    INDEX 01 02:35:44
  TRACK 115 AUDIO
    TITLE "0:"
    INDEX 01 02:36:65
  TRACK 116 AUDIO
    TITLE "33:cjc160_1656"
    INDEX 01 02:37:30
  TRACK 117 AUDIO
    TITLE "0:"
    INDEX 01 02:41:02
  TRACK 118 AUDIO
    TITLE "34:cjc160_1657"
    INDEX 01 02:41:39
  TRACK 119 AUDIO
    TITLE "0:"
    INDEX 01 02:44:45
  TRACK 120 AUDIO
    TITLE "35:cjc160_1658"
    INDEX 01 02:44:71
  TRACK 121 AUDIO
    TITLE "0:"
    INDEX 01 02:48:00
  TRACK 122 AUDIO
    TITLE "31:cjc160_1659"
    INDEX 01 02:48:74
  TRACK 123 AUDIO
    TITLE "0:"
    INDEX 01 02:50:22
  TRACK 124 AUDIO
    TITLE "32:cjc160_1660"
    INDEX 01 02:50:60
  TRACK 125 AUDIO
    TITLE "0:"
    INDEX 01 02:53:52
  TRACK 126 AUDIO
    TITLE "33:cjc160_1661"
    INDEX 01 02:54:14
  TRACK 127 AUDIO
    TITLE "0:"
    INDEX 01 02:56:54
  TRACK 128 AUDIO
    TITLE "34:cjc160_1662"
    INDEX 01 02:57:17
  TRACK 129 AUDIO
    TITLE "0:"
    INDEX 01 02:59:45
  TRACK 130 AUDIO
    TITLE "35:cjc160_1663"
    INDEX 01 02:59:72
  TRACK 131 AUDIO
    TITLE "0:"
    INDEX 01 03:02:26
  TRACK 132 AUDIO
    TITLE "31:cjc160_1664"
    INDEX 01 03:03:29
  TRACK 133 AUDIO
    TITLE "0:"
    INDEX 01 03:04:48
  TRACK 134 AUDIO
    TITLE "32:cjc160_1665"
    INDEX 01 03:05:10
  TRACK 135 AUDIO
    TITLE "0:"
    INDEX 01 03:08:69
  TRACK 136 AUDIO
    TITLE "33:cjc160_1666"
    INDEX 01 03:09:33
  TRACK 137 AUDIO
    TITLE "0:"
    INDEX 01 03:11:11
  TRACK 138 AUDIO
    TITLE "34:cjc160_1667"
    INDEX 01 03:11:50
  TRACK 139 AUDIO
    TITLE "0:"
    INDEX 01 03:13:16
  TRACK 140 AUDIO
    TITLE "35:cjc160_1668"
    INDEX 01 03:13:47
  TRACK 141 AUDIO
    TITLE "0:"
    INDEX 01 03:15:15
  TRACK 142 AUDIO
    TITLE "31:cjc160_1669"
    INDEX 01 03:16:20
  TRACK 143 AUDIO
    TITLE "0:"
    INDEX 01 03:17:33
  TRACK 144 AUDIO
    TITLE "32:cjc160_1670"
    INDEX 01 03:17:72
  TRACK 145 AUDIO
    TITLE "0:"
    INDEX 01 03:19:30
  TRACK 146 AUDIO
    TITLE "33:cjc160_1671"
    INDEX 01 03:19:73
  TRACK 147 AUDIO
    TITLE "0:"
    INDEX 01 03:22:48
  TRACK 148 AUDIO
    TITLE "34:cjc160_1672"
    INDEX 01 03:23:14
  TRACK 149 AUDIO
    TITLE "0:"
    INDEX 01 03:25:36
  TRACK 150 AUDIO
    TITLE "35:cjc160_1673"
    INDEX 01 03:25:60
  TRACK 151 AUDIO
    TITLE "0:"
    INDEX 01 03:28:09
  TRACK 152 AUDIO
    TITLE "31:cjc160_1674"
    INDEX 01 03:29:09
  TRACK 153 AUDIO
    TITLE "0:"
    INDEX 01 03:30:43
  TRACK 154 AUDIO
    TITLE "32:cjc160_1675"
    INDEX 01 03:31:08
  TRACK 155 AUDIO
    TITLE "0:"
    INDEX 01 03:32:27
  TRACK 156 AUDIO
    TITLE "33:cjc160_1676"
    INDEX 01 03:32:66
  TRACK 157 AUDIO
    TITLE "0:"
    INDEX 01 03:34:55
  TRACK 158 AUDIO
    TITLE "34:cjc160_1677"
    INDEX 01 03:35:17
  TRACK 159 AUDIO
    TITLE "0:"
    INDEX 01 03:37:45
  TRACK 160 AUDIO
    TITLE "35:cjc160_1678"
    INDEX 01 03:37:69
  TRACK 161 AUDIO
    TITLE "0:"
    INDEX 01 03:40:20
  TRACK 162 AUDIO
    TITLE "31:cjc160_1679"
    INDEX 01 03:41:22
  TRACK 163 AUDIO
    TITLE "0:"
    INDEX 01 03:42:23
  TRACK 164 AUDIO
    TITLE "32:cjc160_1680"
    INDEX 01 03:42:60
  TRACK 165 AUDIO
    TITLE "0:"
    INDEX 01 03:46:68
  TRACK 166 AUDIO
    TITLE "33:cjc160_1681"
    INDEX 01 03:47:30
  TRACK 167 AUDIO
    TITLE "0:"
    INDEX 01 03:49:47
  TRACK 168 AUDIO
    TITLE "34:cjc160_1682"
    INDEX 01 03:50:09
  TRACK 169 AUDIO
    TITLE "0:"
    INDEX 01 03:52:14
  TRACK 170 AUDIO
    TITLE "35:cjc160_1683"
    INDEX 01 03:52:37
  TRACK 171 AUDIO
    TITLE "0:"
    INDEX 01 03:54:42
  TRACK 172 AUDIO
    TITLE "31:cjc160_1684"
    INDEX 01 03:55:40
  TRACK 173 AUDIO
    TITLE "0:"
    INDEX 01 03:56:61
  TRACK 174 AUDIO
    TITLE "32:cjc160_1685"
    INDEX 01 03:57:21
  TRACK 175 AUDIO
    TITLE "0:"
    INDEX 01 03:58:38
  TRACK 176 AUDIO
    TITLE "33:cjc160_1686"
    INDEX 01 03:59:00
  TRACK 177 AUDIO
    TITLE "0:"
    INDEX 01 04:02:20
  TRACK 178 AUDIO
    TITLE "34:cjc160_1687"
    INDEX 01 04:02:57
  TRACK 179 AUDIO
    TITLE "0:"
    INDEX 01 04:05:59
  TRACK 180 AUDIO
    TITLE "35:cjc160_1688"
    INDEX 01 04:06:08
  TRACK 181 AUDIO
    TITLE "0:"
    INDEX 01 04:09:10
  TRACK 182 AUDIO
    TITLE "31:cjc160_1689"
    INDEX 01 04:10:08
  TRACK 183 AUDIO
    TITLE "0:"
    INDEX 01 04:11:37
  TRACK 184 AUDIO
    TITLE "32:cjc160_1690"
    INDEX 01 04:11:72
  TRACK 185 AUDIO
    TITLE "0:"
    INDEX 01 04:14:09
  TRACK 186 AUDIO
    TITLE "33:cjc160_1691"
    INDEX 01 04:14:45
  TRACK 187 AUDIO
    TITLE "0:"
    INDEX 01 04:17:27
  TRACK 188 AUDIO
    TITLE "34:cjc160_1692"
    INDEX 01 04:17:65
  TRACK 189 AUDIO
    TITLE "0:"
    INDEX 01 04:21:13
  TRACK 190 AUDIO
    TITLE "35:cjc160_1693"
    INDEX 01 04:21:37
  TRACK 191 AUDIO
    TITLE "0:"
    INDEX 01 04:24:61
  TRACK 192 AUDIO
    TITLE "31:cjc160_1694"
    INDEX 01 04:25:60
  TRACK 193 AUDIO
    TITLE "0:"
    INDEX 01 04:27:06
  TRACK 194 AUDIO
    TITLE "32:cjc160_1695"
    INDEX 01 04:27:43
  TRACK 195 AUDIO
    TITLE "0:"
    INDEX 01 04:29:54
  TRACK 196 AUDIO
    TITLE "33:cjc160_1696"
    INDEX 01 04:30:14
  TRACK 197 AUDIO
    TITLE "0:"
    INDEX 01 04:31:55
  TRACK 198 AUDIO
    TITLE "34:cjc160_1697"
    INDEX 01 04:32:17
  TRACK 199 AUDIO
    TITLE "0:"
    INDEX 01 04:34:04
  TRACK 200 AUDIO
    TITLE "35:cjc160_1698"
    INDEX 01 04:34:30
  TRACK 201 AUDIO
    TITLE "0:"
    INDEX 01 04:36:17
  TRACK 202 AUDIO
    TITLE "31:cjc160_1699"
    INDEX 01 04:37:16
  TRACK 203 AUDIO
    TITLE "0:"
    INDEX 01 04:38:71
  TRACK 204 AUDIO
    TITLE "32:cjc160_1700"
    INDEX 01 04:39:35
  TRACK 205 AUDIO
    TITLE "0:"
    INDEX 01 04:42:68
  TRACK 206 AUDIO
    TITLE "33:cjc160_1701"
    INDEX 01 04:43:33
  TRACK 207 AUDIO
    TITLE "0:"
    INDEX 01 04:46:37
  TRACK 208 AUDIO
    TITLE "34:cjc160_1702"
    INDEX 01 04:47:03
  TRACK 209 AUDIO
    TITLE "0:"
    INDEX 01 04:49:47
  TRACK 210 AUDIO
    TITLE "35:cjc160_1703"
    INDEX 01 04:50:01
  TRACK 211 AUDIO
    TITLE "0:"
    INDEX 01 04:52:41
  TRACK 212 AUDIO
    TITLE "31:cjc160_1704"
    INDEX 01 04:53:45
  TRACK 213 AUDIO
    TITLE "0:"
    INDEX 01 04:54:52
  TRACK 214 AUDIO
    TITLE "32:cjc160_1705"
    INDEX 01 04:55:16
  TRACK 215 AUDIO
    TITLE "0:"
    INDEX 01 04:58:13
  TRACK 216 AUDIO
    TITLE "33:cjc160_1706"
    INDEX 01 04:58:52
  TRACK 217 AUDIO
    TITLE "0:"
    INDEX 01 05:01:72
  TRACK 218 AUDIO
    TITLE "34:cjc160_1707"
    INDEX 01 05:02:40
  TRACK 219 AUDIO
    TITLE "0:"
    INDEX 01 05:05:40
  TRACK 220 AUDIO
    TITLE "35:cjc160_1708"
    INDEX 01 05:05:70
  TRACK 221 AUDIO
    TITLE "0:"
    INDEX 01 05:08:68
  TRACK 222 AUDIO
    TITLE "31:cjc160_1709"
    INDEX 01 05:09:69
  TRACK 223 AUDIO
    TITLE "0:"
    INDEX 01 05:11:17
  TRACK 224 AUDIO
    TITLE "32:cjc160_1710"
    INDEX 01 05:11:56
  TRACK 225 AUDIO
    TITLE "0:"
    INDEX 01 05:13:12
  TRACK 226 AUDIO
    TITLE "33:cjc160_1711"
    INDEX 01 05:13:49
  TRACK 227 AUDIO
    TITLE "0:"
    INDEX 01 05:16:63
  TRACK 228 AUDIO
    TITLE "34:cjc160_1712"
    INDEX 01 05:17:33
  TRACK 229 AUDIO
    TITLE "0:"
    INDEX 01 05:20:02
  TRACK 230 AUDIO
    TITLE "35:cjc160_1713"
    INDEX 01 05:20:28
  TRACK 231 AUDIO
    TITLE "0:"
    INDEX 01 05:22:74
  TRACK 232 AUDIO
    TITLE "31:cjc160_1714"
    INDEX 01 05:23:73
  TRACK 233 AUDIO
    TITLE "0:"
    INDEX 01 05:25:13
  TRACK 234 AUDIO
    TITLE "32:cjc160_1715"
    INDEX 01 05:25:53
  TRACK 235 AUDIO
    TITLE "0:"
    INDEX 01 05:28:20
  TRACK 236 AUDIO
    TITLE "33:cjc160_1716"
    INDEX 01 05:28:69
  TRACK 237 AUDIO
    TITLE "0:"
    INDEX 01 05:33:58
  TRACK 238 AUDIO
    TITLE "34:cjc160_1717"
    INDEX 01 05:34:20
  TRACK 239 AUDIO
    TITLE "0:"
    INDEX 01 05:37:58
  TRACK 240 AUDIO
    TITLE "35:cjc160_1718"
    INDEX 01 05:38:08
  TRACK 241 AUDIO
    TITLE "0:"
    INDEX 01 05:41:44
  TRACK 242 AUDIO
    TITLE "31:cjc160_1719"
    INDEX 01 05:42:45
  TRACK 243 AUDIO
    TITLE "0:"
    INDEX 01 05:44:07
  TRACK 244 AUDIO
    TITLE "32:cjc160_1720"
    INDEX 01 05:44:46
  TRACK 245 AUDIO
    TITLE "0:"
    INDEX 01 05:47:46
  TRACK 246 AUDIO
    TITLE "33:cjc160_1721"
    INDEX 01 05:48:13
  TRACK 247 AUDIO
    TITLE "0:"
    INDEX 01 05:51:27
  TRACK 248 AUDIO
    TITLE "34:cjc160_1722"
    INDEX 01 05:51:66
  TRACK 249 AUDIO
    TITLE "0:"
    INDEX 01 05:54:33
  TRACK 250 AUDIO
    TITLE "35:cjc160_1723"
    INDEX 01 05:54:58
  TRACK 251 AUDIO
    TITLE "0:"
    INDEX 01 05:57:25
  TRACK 252 AUDIO
    TITLE "31:cjc160_1724"
    INDEX 01 05:58:25
  TRACK 253 AUDIO
    TITLE "0:"
    INDEX 01 05:59:57
  TRACK 254 AUDIO
    TITLE "32:cjc160_1725"
    INDEX 01 06:00:16
  TRACK 255 AUDIO
    TITLE "0:"
    INDEX 01 06:03:00
  TRACK 256 AUDIO
    TITLE "33:cjc160_1726"
    INDEX 01 06:03:38
  TRACK 257 AUDIO
    TITLE "0:"
    INDEX 01 06:06:34
  TRACK 258 AUDIO
    TITLE "34:cjc160_1727"
    INDEX 01 06:06:73
  TRACK 259 AUDIO
    TITLE "0:"
    INDEX 01 06:09:03
  TRACK 260 AUDIO
    TITLE "35:cjc160_1728"
    INDEX 01 06:09:28
  TRACK 261 AUDIO
    TITLE "0:"
    INDEX 01 06:11:33
  TRACK 262 AUDIO
    TITLE "31:cjc160_1729"
    INDEX 01 06:12:33
  TRACK 263 AUDIO
    TITLE "0:"
    INDEX 01 06:13:67
  TRACK 264 AUDIO
    TITLE "32:cjc160_1730"
    INDEX 01 06:14:33
  TRACK 265 AUDIO
    TITLE "0:"
    INDEX 01 06:15:51
  TRACK 266 AUDIO
    TITLE "33:cjc160_1731"
    INDEX 01 06:16:15
  TRACK 267 AUDIO
    TITLE "0:"
    INDEX 01 06:17:49
  TRACK 268 AUDIO
    TITLE "34:cjc160_1732"
    INDEX 01 06:18:12
  TRACK 269 AUDIO
    TITLE "0:"
    INDEX 01 06:20:01
  TRACK 270 AUDIO
    TITLE "35:cjc160_1733"
    INDEX 01 06:20:28
  TRACK 271 AUDIO
    TITLE "0:"
    INDEX 01 06:22:15
  TRACK 272 AUDIO
    TITLE "31:cjc160_1734"
    INDEX 01 06:23:17
  TRACK 273 AUDIO
    TITLE "0:"
    INDEX 01 06:24:32
  TRACK 274 AUDIO
    TITLE "32:cjc160_1735"
    INDEX 01 06:24:71
  TRACK 275 AUDIO
    TITLE "0:"
    INDEX 01 06:26:62
  TRACK 276 AUDIO
    TITLE "33:cjc160_1736"
    INDEX 01 06:27:24
  TRACK 277 AUDIO
    TITLE "0:"
    INDEX 01 06:29:72
  TRACK 278 AUDIO
    TITLE "34:cjc160_1737"
    INDEX 01 06:30:36
  TRACK 279 AUDIO
    TITLE "0:"
    INDEX 01 06:32:41
  TRACK 280 AUDIO
    TITLE "35:cjc160_1738"
    INDEX 01 06:32:69
  TRACK 281 AUDIO
    TITLE "0:"
    INDEX 01 06:34:73
  TRACK 282 AUDIO
    TITLE "31:cjc160_1739"
    INDEX 01 06:36:00
  TRACK 283 AUDIO
    TITLE "0:"
    INDEX 01 06:37:23
  TRACK 284 AUDIO
    TITLE "32:cjc160_1740"
    INDEX 01 06:37:62
  TRACK 285 AUDIO
    TITLE "0:"
    INDEX 01 06:39:24
  TRACK 286 AUDIO
    TITLE "33:cjc160_1741"
    INDEX 01 06:39:67
  TRACK 287 AUDIO
    TITLE "0:"
    INDEX 01 06:42:36
  TRACK 288 AUDIO
    TITLE "34:cjc160_1742"
    INDEX 01 06:43:15
  TRACK 289 AUDIO
    TITLE "0:"
    INDEX 01 06:45:36
  TRACK 290 AUDIO
    TITLE "35:cjc160_1743"
    INDEX 01 06:45:63
  TRACK 291 AUDIO
    TITLE "0:"
    INDEX 01 06:48:13
  TRACK 292 AUDIO
    TITLE "31:cjc160_1744"
    INDEX 01 06:49:12
  TRACK 293 AUDIO
    TITLE "0:"
    INDEX 01 06:50:29
  TRACK 294 AUDIO
    TITLE "32:cjc160_1745"
    INDEX 01 06:50:68
  TRACK 295 AUDIO
    TITLE "0:"
    INDEX 01 06:53:49
  TRACK 296 AUDIO
    TITLE "33:cjc160_1746"
    INDEX 01 06:54:13
  TRACK 297 AUDIO
    TITLE "0:"
    INDEX 01 06:56:73
  TRACK 298 AUDIO
    TITLE "34:cjc160_1747"
    INDEX 01 06:57:35
  TRACK 299 AUDIO
    TITLE "0:"
    INDEX 01 06:59:26
  TRACK 300 AUDIO
    TITLE "35:cjc160_1748"
    INDEX 01 06:59:58
  TRACK 301 AUDIO
    TITLE "0:"
    INDEX 01 07:01:55
  TRACK 302 AUDIO
    TITLE "31:cjc160_1749"
    INDEX 01 07:02:56
  TRACK 303 AUDIO
    TITLE "0:"
    INDEX 01 07:03:69
  TRACK 304 AUDIO
    TITLE "32:cjc160_1750"
    INDEX 01 07:04:29
  TRACK 305 AUDIO
    TITLE "0:"
    INDEX 01 07:06:01
  TRACK 306 AUDIO
    TITLE "33:cjc160_1751"
    INDEX 01 07:06:38
  TRACK 307 AUDIO
    TITLE "0:"
    INDEX 01 07:09:36
  TRACK 308 AUDIO
    TITLE "34:cjc160_1752"
    INDEX 01 07:10:03
  TRACK 309 AUDIO
    TITLE "0:"
    INDEX 01 07:12:23
  TRACK 310 AUDIO
    TITLE "35:cjc160_1753"
    INDEX 01 07:12:48
  TRACK 311 AUDIO
    TITLE "0:"
    INDEX 01 07:14:67
  TRACK 312 AUDIO
    TITLE "31:cjc160_1754"
    INDEX 01 07:15:66
  TRACK 313 AUDIO
    TITLE "0:"
    INDEX 01 07:17:18
  TRACK 314 AUDIO
    TITLE "32:cjc160_1755"
    INDEX 01 07:17:57
  TRACK 315 AUDIO
    TITLE "0:"
    INDEX 01 07:18:65
  TRACK 316 AUDIO
    TITLE "33:cjc160_1756"
    INDEX 01 07:19:27
  TRACK 317 AUDIO
    TITLE "0:"
    INDEX 01 07:22:31
  TRACK 318 AUDIO
    TITLE "34:cjc160_1757"
    INDEX 01 07:22:70
  TRACK 319 AUDIO
    TITLE "0:"
    INDEX 01 07:25:45
  TRACK 320 AUDIO
    TITLE "35:cjc160_1758"
    INDEX 01 07:25:67
  TRACK 321 AUDIO
    TITLE "0:"
    INDEX 01 07:28:42
  TRACK 322 AUDIO
    TITLE "31:cjc160_1759"
    INDEX 01 07:29:41
  TRACK 323 AUDIO
    TITLE "0:"
    INDEX 01 07:30:50
  TRACK 324 AUDIO
    TITLE "32:cjc160_1760"
    INDEX 01 07:31:13
  TRACK 325 AUDIO
    TITLE "0:"
    INDEX 01 07:32:37
  TRACK 326 AUDIO
    TITLE "33:cjc160_1761"
    INDEX 01 07:33:02
  TRACK 327 AUDIO
    TITLE "0:"
    INDEX 01 07:36:39
  TRACK 328 AUDIO
    TITLE "34:cjc160_1762"
    INDEX 01 07:37:01
  TRACK 329 AUDIO
    TITLE "0:"
    INDEX 01 07:40:27
  TRACK 330 AUDIO
    TITLE "35:cjc160_1763"
    INDEX 01 07:40:53
  TRACK 331 AUDIO
    TITLE "0:"
    INDEX 01 07:44:01
  TRACK 332 AUDIO
    TITLE "31:cjc160_1764"
    INDEX 01 07:45:03
  TRACK 333 AUDIO
    TITLE "0:"
    INDEX 01 07:46:55
  TRACK 334 AUDIO
    TITLE "32:cjc160_1765"
    INDEX 01 07:47:17
  TRACK 335 AUDIO
    TITLE "0:"
    INDEX 01 07:48:60
  TRACK 336 AUDIO
    TITLE "33:cjc160_1766"
    INDEX 01 07:49:24
  TRACK 337 AUDIO
    TITLE "0:"
    INDEX 01 07:52:17
  TRACK 338 AUDIO
    TITLE "34:cjc160_1767"
    INDEX 01 07:52:56
  TRACK 339 AUDIO
    TITLE "0:"
    INDEX 01 07:55:72
  TRACK 340 AUDIO
    TITLE "35:cjc160_1768"
    INDEX 01 07:56:20
  TRACK 341 AUDIO
    TITLE "0:"
    INDEX 01 07:59:36
  TRACK 342 AUDIO
    TITLE "31:cjc160_1769"
    INDEX 01 08:00:42
  TRACK 343 AUDIO
    TITLE "0:"
    INDEX 01 08:01:67
  TRACK 344 AUDIO
    TITLE "32:cjc160_1770"
    INDEX 01 08:02:33
  TRACK 345 AUDIO
    TITLE "0:"
    INDEX 01 08:03:44
  TRACK 346 AUDIO
    TITLE "33:cjc160_1771"
    INDEX 01 08:04:06
  TRACK 347 AUDIO
    TITLE "0:"
    INDEX 01 08:06:30
  TRACK 348 AUDIO
    TITLE "34:cjc160_1772"
    INDEX 01 08:06:70
  TRACK 349 AUDIO
    TITLE "0:"
    INDEX 01 08:09:37
  TRACK 350 AUDIO
    TITLE "35:cjc160_1773"
    INDEX 01 08:09:60
  TRACK 351 AUDIO
    TITLE "0:"
    INDEX 01 08:12:25
  TRACK 352 AUDIO
    TITLE "31:cjc160_1774"
    INDEX 01 08:13:27
  TRACK 353 AUDIO
    TITLE "0:"
    INDEX 01 08:14:69
  TRACK 354 AUDIO
    TITLE "32:cjc160_1775"
    INDEX 01 08:15:35
  TRACK 355 AUDIO
    TITLE "0:"
    INDEX 01 08:16:74
  TRACK 356 AUDIO
    TITLE "33:cjc160_1776"
    INDEX 01 08:17:38
  TRACK 357 AUDIO
    TITLE "0:"
    INDEX 01 08:19:61
  TRACK 358 AUDIO
    TITLE "34:cjc160_1777"
    INDEX 01 08:20:23
  TRACK 359 AUDIO
    TITLE "0:"
    INDEX 01 08:22:61
  TRACK 360 AUDIO
    TITLE "35:cjc160_1778"
    INDEX 01 08:23:07
  TRACK 361 AUDIO
    TITLE "0:"
    INDEX 01 08:25:46
  TRACK 362 AUDIO
    TITLE "31:cjc160_1779"
    INDEX 01 08:26:45
  TRACK 363 AUDIO
    TITLE "0:"
    INDEX 01 08:27:54
  TRACK 364 AUDIO
    TITLE "32:cjc160_1780"
    INDEX 01 08:28:14
  TRACK 365 AUDIO
    TITLE "0:"
    INDEX 01 08:29:30
  TRACK 366 AUDIO
    TITLE "33:cjc160_1781"
    INDEX 01 08:29:67
  TRACK 367 AUDIO
    TITLE "0:"
    INDEX 01 08:32:71
  TRACK 368 AUDIO
    TITLE "34:cjc160_1782"
    INDEX 01 08:33:35
  TRACK 369 AUDIO
    TITLE "0:"
    INDEX 01 08:36:20
  TRACK 370 AUDIO
    TITLE "35:cjc160_1783"
    INDEX 01 08:36:45
  TRACK 371 AUDIO
    TITLE "0:"
    INDEX 01 08:39:30
  TRACK 372 AUDIO
    TITLE "31:cjc160_1784"
    INDEX 01 08:40:29
  TRACK 373 AUDIO
    TITLE "0:"
    INDEX 01 08:42:09
  TRACK 374 AUDIO
    TITLE "32:cjc160_1785"
    INDEX 01 08:42:46
  TRACK 375 AUDIO
    TITLE "0:"
    INDEX 01 08:44:15
  TRACK 376 AUDIO
    TITLE "33:cjc160_1786"
    INDEX 01 08:44:55
  TRACK 377 AUDIO
    TITLE "0:"
    INDEX 01 08:47:16
  TRACK 378 AUDIO
    TITLE "34:cjc160_1787"
    INDEX 01 08:47:53
  TRACK 379 AUDIO
    TITLE "0:"
    INDEX 01 08:50:16
  TRACK 380 AUDIO
    TITLE "35:cjc160_1788"
    INDEX 01 08:50:42
  TRACK 381 AUDIO
    TITLE "0:"
    INDEX 01 08:52:70
  TRACK 382 AUDIO
    TITLE "31:cjc160_1789"
    INDEX 01 08:54:10
  TRACK 383 AUDIO
    TITLE "0:"
    INDEX 01 08:55:29
  TRACK 384 AUDIO
    TITLE "32:cjc160_1790"
    INDEX 01 08:55:68
  TRACK 385 AUDIO
    TITLE "0:"
    INDEX 01 08:57:08
  TRACK 386 AUDIO
    TITLE "33:cjc160_1791"
    INDEX 01 08:57:47
  TRACK 387 AUDIO
    TITLE "0:"
    INDEX 01 08:59:29
  TRACK 388 AUDIO
    TITLE "34:cjc160_1792"
    INDEX 01 08:59:68
  TRACK 389 AUDIO
    TITLE "0:"
    INDEX 01 09:01:63
  TRACK 390 AUDIO
    TITLE "35:cjc160_1793"
    INDEX 01 09:02:13
  TRACK 391 AUDIO
    TITLE "0:"
    INDEX 01 09:04:08
  TRACK 392 AUDIO
    TITLE "31:cjc160_1794"
    INDEX 01 09:05:08
  TRACK 393 AUDIO
    TITLE "0:"
    INDEX 01 09:06:33
  TRACK 394 AUDIO
    TITLE "32:cjc160_1795"
    INDEX 01 09:06:70
  TRACK 395 AUDIO
    TITLE "0:"
    INDEX 01 09:10:13
  TRACK 396 AUDIO
    TITLE "33:cjc160_1796"
    INDEX 01 09:10:50
  TRACK 397 AUDIO
    TITLE "0:"
    INDEX 01 09:13:60
  TRACK 398 AUDIO
    TITLE "34:cjc160_1797"
    INDEX 01 09:14:22
  TRACK 399 AUDIO
    TITLE "0:"
    INDEX 01 09:16:45
  TRACK 400 AUDIO
    TITLE "35:cjc160_1798"
    INDEX 01 09:16:72
  TRACK 401 AUDIO
    TITLE "0:"
    INDEX 01 09:19:22
  TRACK 402 AUDIO
    TITLE "31:cjc160_1799"
    INDEX 01 09:20:23
  TRACK 403 AUDIO
    TITLE "0:"
    INDEX 01 09:21:46
  TRACK 404 AUDIO
    TITLE "32:cjc160_1800"
    INDEX 01 09:22:08
  TRACK 405 AUDIO
    TITLE "0:"
    INDEX 01 09:23:16
  TRACK 406 AUDIO
    TITLE "33:cjc160_1801"
    INDEX 01 09:23:57
  TRACK 407 AUDIO
    TITLE "0:"
    INDEX 01 09:25:54
  TRACK 408 AUDIO
    TITLE "34:cjc160_1802"
    INDEX 01 09:26:20
  TRACK 409 AUDIO
    TITLE "0:"
    INDEX 01 09:28:07
  TRACK 410 AUDIO
    TITLE "35:cjc160_1803"
    INDEX 01 09:28:32
  TRACK 411 AUDIO
    TITLE "0:"
    INDEX 01 09:30:19
  TRACK 412 AUDIO
    TITLE "31:cjc160_1804"
    INDEX 01 09:31:21
  TRACK 413 AUDIO
    TITLE "0:"
    INDEX 01 09:32:67
  TRACK 414 AUDIO
    TITLE "32:cjc160_1805"
    INDEX 01 09:33:30
  TRACK 415 AUDIO
    TITLE "0:"
    INDEX 01 09:35:66
  TRACK 416 AUDIO
    TITLE "33:cjc160_1806"
    INDEX 01 09:36:44
  TRACK 417 AUDIO
    TITLE "0:"
    INDEX 01 09:38:52
  TRACK 418 AUDIO
    TITLE "34:cjc160_1807"
    INDEX 01 09:39:16
  TRACK 419 AUDIO
    TITLE "0:"
    INDEX 01 09:41:37
  TRACK 420 AUDIO
    TITLE "35:cjc160_1808"
    INDEX 01 09:41:64
  TRACK 421 AUDIO
    TITLE "0:"
    INDEX 01 09:44:10
  TRACK 422 AUDIO
    TITLE "31:cjc160_1809"
    INDEX 01 09:45:13
  TRACK 423 AUDIO
    TITLE "0:"
    INDEX 01 09:46:32
  TRACK 424 AUDIO
    TITLE "32:cjc160_1810"
    INDEX 01 09:46:69
  TRACK 425 AUDIO
    TITLE "0:"
    INDEX 01 09:48:15
  TRACK 426 AUDIO
    TITLE "33:cjc160_1811"
    INDEX 01 09:48:55
  TRACK 427 AUDIO
    TITLE "0:"
    INDEX 01 09:52:17
  TRACK 428 AUDIO
    TITLE "34:cjc160_1812"
    INDEX 01 09:52:58
  TRACK 429 AUDIO
    TITLE "0:"
    INDEX 01 09:57:44
  TRACK 430 AUDIO
    TITLE "35:cjc160_1813"
    INDEX 01 09:57:69
  TRACK 431 AUDIO
    TITLE "0:"
    INDEX 01 10:02:57
  TRACK 432 AUDIO
    TITLE "31:cjc160_1814"
    INDEX 01 10:03:54
  TRACK 433 AUDIO
    TITLE "0:"
    INDEX 01 10:05:10
  TRACK 434 AUDIO
    TITLE "32:cjc160_1815"
    INDEX 01 10:05:51
  TRACK 435 AUDIO
    TITLE "0:"
    INDEX 01 10:08:22
  TRACK 436 AUDIO
    TITLE "33:cjc160_1816"
    INDEX 01 10:08:61
  TRACK 437 AUDIO
    TITLE "0:"
    INDEX 01 10:11:20
  TRACK 438 AUDIO
    TITLE "34:cjc160_1817"
    INDEX 01 10:11:60
  TRACK 439 AUDIO
    TITLE "0:"
    INDEX 01 10:13:70
  TRACK 440 AUDIO
    TITLE "35:cjc160_1818"
    INDEX 01 10:14:21
  TRACK 441 AUDIO
    TITLE "0:"
    INDEX 01 10:16:29
  TRACK 442 AUDIO
    TITLE "31:cjc160_1819"
    INDEX 01 10:17:31
  TRACK 443 AUDIO
    TITLE "0:"
    INDEX 01 10:18:42
  TRACK 444 AUDIO
    TITLE "32:cjc160_1820"
    INDEX 01 10:19:04
  TRACK 445 AUDIO
    TITLE "0:"
    INDEX 01 10:20:08
  TRACK 446 AUDIO
    TITLE "33:cjc160_1821"
    INDEX 01 10:20:45
  TRACK 447 AUDIO
    TITLE "0:"
    INDEX 01 10:22:73
  TRACK 448 AUDIO
    TITLE "34:cjc160_1822"
    INDEX 01 10:23:37
  TRACK 449 AUDIO
    TITLE "0:"
    INDEX 01 10:25:42
  TRACK 450 AUDIO
    TITLE "35:cjc160_1823"
    INDEX 01 10:25:69
  TRACK 451 AUDIO
    TITLE "0:"
    INDEX 01 10:28:01
  TRACK 452 AUDIO
    TITLE "31:cjc160_1824"
    INDEX 01 10:29:01
  TRACK 453 AUDIO
    TITLE "0:"
    INDEX 01 10:30:14
  TRACK 454 AUDIO
    TITLE "32:cjc160_1825"
    INDEX 01 10:30:53
  TRACK 455 AUDIO
    TITLE "0:"
    INDEX 01 10:32:48
  TRACK 456 AUDIO
    TITLE "33:cjc160_1826"
    INDEX 01 10:33:12
  TRACK 457 AUDIO
    TITLE "0:"
    INDEX 01 10:34:41
  TRACK 458 AUDIO
    TITLE "34:cjc160_1827"
    INDEX 01 10:35:03
  TRACK 459 AUDIO
    TITLE "0:"
    INDEX 01 10:36:46
  TRACK 460 AUDIO
    TITLE "35:cjc160_1828"
    INDEX 01 10:36:69
  TRACK 461 AUDIO
    TITLE "0:"
    INDEX 01 10:38:39
  TRACK 462 AUDIO
    TITLE "31:cjc160_1829"
    INDEX 01 10:39:36
  TRACK 463 AUDIO
    TITLE "0:"
    INDEX 01 10:40:63
  TRACK 464 AUDIO
    TITLE "32:cjc160_1830"
    INDEX 01 10:41:25
  TRACK 465 AUDIO
    TITLE "0:"
    INDEX 01 10:44:00
  TRACK 466 AUDIO
    TITLE "33:cjc160_1831"
    INDEX 01 10:44:34
  TRACK 467 AUDIO
    TITLE "0:"
    INDEX 01 10:48:14
  TRACK 468 AUDIO
    TITLE "34:cjc160_1832"
    INDEX 01 10:48:57
  TRACK 469 AUDIO
    TITLE "0:"
    INDEX 01 10:52:29
  TRACK 470 AUDIO
    TITLE "35:cjc160_1833"
    INDEX 01 10:52:53
  TRACK 471 AUDIO
    TITLE "0:"
    INDEX 01 10:56:23
  TRACK 472 AUDIO
    TITLE "31:cjc160_1834"
    INDEX 01 10:57:26
  TRACK 473 AUDIO
    TITLE "0:"
    INDEX 01 10:59:00
  TRACK 474 AUDIO
    TITLE "32:cjc160_1835"
    INDEX 01 10:59:37
  TRACK 475 AUDIO
    TITLE "0:"
    INDEX 01 11:01:18
  TRACK 476 AUDIO
    TITLE "33:cjc160_1836"
    INDEX 01 11:01:57
  TRACK 477 AUDIO
    TITLE "0:"
    INDEX 01 11:04:17
  TRACK 478 AUDIO
    TITLE "34:cjc160_1837"
    INDEX 01 11:04:56
  TRACK 479 AUDIO
    TITLE "0:"
    INDEX 01 11:07:03
  TRACK 480 AUDIO
    TITLE "35:cjc160_1838"
    INDEX 01 11:07:29
  TRACK 481 AUDIO
    TITLE "0:"
    INDEX 01 11:09:51
  TRACK 482 AUDIO
    TITLE "31:cjc160_1839"
    INDEX 01 11:10:51
  TRACK 483 AUDIO
    TITLE "0:"
    INDEX 01 11:11:68
  TRACK 484 AUDIO
    TITLE "32:cjc160_1840"
    INDEX 01 11:12:30
  TRACK 485 AUDIO
    TITLE "0:"
    INDEX 01 11:14:33
  TRACK 486 AUDIO
    TITLE "33:cjc160_1841"
    INDEX 01 11:14:70
  TRACK 487 AUDIO
    TITLE "0:"
    INDEX 01 11:16:71
  TRACK 488 AUDIO
    TITLE "34:cjc160_1842"
    INDEX 01 11:17:29
  TRACK 489 AUDIO
    TITLE "0:"
    INDEX 01 11:19:63
  TRACK 490 AUDIO
    TITLE "35:cjc160_1843"
    INDEX 01 11:20:08
  TRACK 491 AUDIO
    TITLE "0:"
    INDEX 01 11:22:40
  TRACK 492 AUDIO
    TITLE "31:cjc160_1844"
    INDEX 01 11:23:41
  TRACK 493 AUDIO
    TITLE "0:"
    INDEX 01 11:24:64
  TRACK 494 AUDIO
    TITLE "32:cjc160_1845"
    INDEX 01 11:25:29
  TRACK 495 AUDIO
    TITLE "0:"
    INDEX 01 11:26:61
  TRACK 496 AUDIO
    TITLE "33:cjc160_1846"
    INDEX 01 11:27:26
  TRACK 497 AUDIO
    TITLE "0:"
    INDEX 01 11:29:62
  TRACK 498 AUDIO
    TITLE "34:cjc160_1847"
    INDEX 01 11:30:26
  TRACK 499 AUDIO
    TITLE "0:"
    INDEX 01 11:32:35
  TRACK 500 AUDIO
    TITLE "35:cjc160_1848"
    INDEX 01 11:32:60
  TRACK 501 AUDIO
    TITLE "0:"
    INDEX 01 11:34:69
  TRACK 502 AUDIO
    TITLE "31:cjc160_1849"
    INDEX 01 11:35:70
  TRACK 503 AUDIO
    TITLE "0:"
    INDEX 01 11:37:22
  TRACK 504 AUDIO
    TITLE "32:cjc160_1850"
    INDEX 01 11:37:61
  TRACK 505 AUDIO
    TITLE "0:"
    INDEX 01 11:40:34
  TRACK 506 AUDIO
    TITLE "33:cjc160_1851"
    INDEX 01 11:40:73
  TRACK 507 AUDIO
    TITLE "0:"
    INDEX 01 11:43:11
  TRACK 508 AUDIO
    TITLE "34:cjc160_1852"
    INDEX 01 11:43:46
  TRACK 509 AUDIO
    TITLE "0:"
    INDEX 01 11:45:10
  TRACK 510 AUDIO
    TITLE "35:cjc160_1853"
    INDEX 01 11:45:41
  TRACK 511 AUDIO
    TITLE "0:"
    INDEX 01 11:47:05
  TRACK 512 AUDIO
    TITLE "31:cjc160_1854"
    INDEX 01 11:48:14
  TRACK 513 AUDIO
    TITLE "0:"
    INDEX 01 11:49:51
  TRACK 514 AUDIO
    TITLE "32:cjc160_1855"
    INDEX 01 11:50:11
  TRACK 515 AUDIO
    TITLE "0:"
    INDEX 01 11:53:15
  TRACK 516 AUDIO
    TITLE "33:cjc160_1856"
    INDEX 01 11:53:52
  TRACK 517 AUDIO
    TITLE "0:"
    INDEX 01 11:56:13
  TRACK 518 AUDIO
    TITLE "34:cjc160_1857"
    INDEX 01 11:56:53
  TRACK 519 AUDIO
    TITLE "0:"
    INDEX 01 11:59:28
  TRACK 520 AUDIO
    TITLE "35:cjc160_1858"
    INDEX 01 11:59:49
  TRACK 521 AUDIO
    TITLE "0:"
    INDEX 01 12:02:26
  TRACK 522 AUDIO
    TITLE "31:cjc160_1859"
    INDEX 01 12:03:21
  TRACK 523 AUDIO
    TITLE "0:"
    INDEX 01 12:04:50
  TRACK 524 AUDIO
    TITLE "32:cjc160_1860"
    INDEX 01 12:05:16
  TRACK 525 AUDIO
    TITLE "0:"
    INDEX 01 12:06:59
  TRACK 526 AUDIO
    TITLE "33:cjc160_1861"
    INDEX 01 12:07:25
  TRACK 527 AUDIO
    TITLE "0:"
    INDEX 01 12:10:18
  TRACK 528 AUDIO
    TITLE "34:cjc160_1862"
    INDEX 01 12:10:59
  TRACK 529 AUDIO
    TITLE "0:"
    INDEX 01 12:13:08
  TRACK 530 AUDIO
    TITLE "35:cjc160_1863"
    INDEX 01 12:13:35
  TRACK 531 AUDIO
    TITLE "0:"
    INDEX 01 12:15:62
  TRACK 532 AUDIO
    TITLE "31:cjc160_1864"
    INDEX 01 12:16:63
  TRACK 533 AUDIO
    TITLE "0:"
    INDEX 01 12:18:03
  TRACK 534 AUDIO
    TITLE "32:cjc160_1865"
    INDEX 01 12:18:41
  TRACK 535 AUDIO
    TITLE "0:"
    INDEX 01 12:19:48
  TRACK 536 AUDIO
    TITLE "33:cjc160_1866"
    INDEX 01 12:20:12
  TRACK 537 AUDIO
    TITLE "0:"
    INDEX 01 12:22:60
  TRACK 538 AUDIO
    TITLE "34:cjc160_1867"
    INDEX 01 12:23:26
  TRACK 539 AUDIO
    TITLE "0:"
    INDEX 01 12:25:45
  TRACK 540 AUDIO
    TITLE "35:cjc160_1868"
    INDEX 01 12:25:70
  TRACK 541 AUDIO
    TITLE "0:"
    INDEX 01 12:28:13
  TRACK 542 AUDIO
    TITLE "31:cjc160_1869"
    INDEX 01 12:29:15
  TRACK 543 AUDIO
    TITLE "0:"
    INDEX 01 12:30:20
  TRACK 544 AUDIO
    TITLE "32:cjc160_1870"
    INDEX 01 12:30:57
  TRACK 545 AUDIO
    TITLE "0:"
    INDEX 01 12:31:37
  TRACK 546 AUDIO
    TITLE "33:cjc160_1871"
    INDEX 01 12:32:00
  TRACK 547 AUDIO
    TITLE "0:"
    INDEX 01 12:34:28
  TRACK 548 AUDIO
    TITLE "34:cjc160_1872"
    INDEX 01 12:34:65
  TRACK 549 AUDIO
    TITLE "0:"
    INDEX 01 12:36:64
  TRACK 550 AUDIO
    TITLE "35:cjc160_1873"
    INDEX 01 12:37:12
  TRACK 551 AUDIO
    TITLE "0:"
    INDEX 01 12:39:09
  TRACK 552 AUDIO
    TITLE "31:cjc160_1874"
    INDEX 01 12:40:11
  TRACK 553 AUDIO
    TITLE "0:"
    INDEX 01 12:41:57
  TRACK 554 AUDIO
    TITLE "32:cjc160_1875"
    INDEX 01 12:42:19
  TRACK 555 AUDIO
    TITLE "0:"
    INDEX 01 12:44:26
  TRACK 556 AUDIO
    TITLE "33:cjc160_1876"
    INDEX 01 12:44:65
  TRACK 557 AUDIO
    TITLE "0:"
    INDEX 01 12:47:27
  TRACK 558 AUDIO
    TITLE "34:cjc160_1877"
    INDEX 01 12:47:64
  TRACK 559 AUDIO
    TITLE "0:"
    INDEX 01 12:49:70
  TRACK 560 AUDIO
    TITLE "35:cjc160_1878"
    INDEX 01 12:50:19
  TRACK 561 AUDIO
    TITLE "0:"
    INDEX 01 12:52:26
  TRACK 562 AUDIO
    TITLE "31:cjc160_1879"
    INDEX 01 12:53:25
  TRACK 563 AUDIO
    TITLE "0:"
    INDEX 01 12:54:58
  TRACK 564 AUDIO
    TITLE "32:cjc160_1880"
    INDEX 01 12:55:22
  TRACK 565 AUDIO
    TITLE "0:"
    INDEX 01 12:58:03
  TRACK 566 AUDIO
    TITLE "33:cjc160_1881"
    INDEX 01 12:58:44
  TRACK 567 AUDIO
    TITLE "0:"
    INDEX 01 13:02:10
  TRACK 568 AUDIO
    TITLE "34:cjc160_1882"
    INDEX 01 13:02:48
  TRACK 569 AUDIO
    TITLE "0:"
    INDEX 01 13:05:42
  TRACK 570 AUDIO
    TITLE "35:cjc160_1883"
    INDEX 01 13:05:68
  TRACK 571 AUDIO
    TITLE "0:"
    INDEX 01 13:08:62
  TRACK 572 AUDIO
    TITLE "31:cjc160_1884"
    INDEX 01 13:09:63
  TRACK 573 AUDIO
    TITLE "0:"
    INDEX 01 13:10:71
  TRACK 574 AUDIO
    TITLE "32:cjc160_1885"
    INDEX 01 13:11:33
  TRACK 575 AUDIO
    TITLE "0:"
    INDEX 01 13:14:59
  TRACK 576 AUDIO
    TITLE "33:cjc160_1886"
    INDEX 01 13:15:23
  TRACK 577 AUDIO
    TITLE "0:"
    INDEX 01 13:17:28
  TRACK 578 AUDIO
    TITLE "34:cjc160_1887"
    INDEX 01 13:17:65
  TRACK 579 AUDIO
    TITLE "0:"
    INDEX 01 13:19:56
  TRACK 580 AUDIO
    TITLE "35:cjc160_1888"
    INDEX 01 13:20:06
  TRACK 581 AUDIO
    TITLE "0:"
    INDEX 01 13:21:74
  TRACK 582 AUDIO
    TITLE "31:cjc160_1889"
    INDEX 01 13:23:01
  TRACK 583 AUDIO
    TITLE "0:"
    INDEX 01 13:24:22
  TRACK 584 AUDIO
    TITLE "32:cjc160_1890"
    INDEX 01 13:24:57
  TRACK 585 AUDIO
    TITLE "0:"
    INDEX 01 13:25:62
  TRACK 586 AUDIO
    TITLE "33:cjc160_1891"
    INDEX 01 13:26:25
  TRACK 587 AUDIO
    TITLE "0:"
    INDEX 01 13:30:03
  TRACK 588 AUDIO
    TITLE "34:cjc160_1892"
    INDEX 01 13:30:40
  TRACK 589 AUDIO
    TITLE "0:"
    INDEX 01 13:34:38
  TRACK 590 AUDIO
    TITLE "35:cjc160_1893"
    INDEX 01 13:34:63
  TRACK 591 AUDIO
    TITLE "0:"
    INDEX 01 13:38:59
  TRACK 592 AUDIO
    TITLE "31:cjc160_1894"
    INDEX 01 13:39:68
  TRACK 593 AUDIO
    TITLE "0:"
    INDEX 01 13:41:24
  TRACK 594 AUDIO
    TITLE "32:cjc160_1895"
    INDEX 01 13:41:61
  TRACK 595 AUDIO
    TITLE "0:"
    INDEX 01 13:44:21
  TRACK 596 AUDIO
    TITLE "33:cjc160_1896"
    INDEX 01 13:44:58
  TRACK 597 AUDIO
    TITLE "0:"
    INDEX 01 13:47:70
  TRACK 598 AUDIO
    TITLE "34:cjc160_1897"
    INDEX 01 13:48:32
  TRACK 599 AUDIO
    TITLE "0:"
    INDEX 01 13:51:38
  TRACK 600 AUDIO
    TITLE "35:cjc160_1898"
    INDEX 01 13:51:62
  TRACK 601 AUDIO
    TITLE "0:"
    INDEX 01 13:54:68
  TRACK 602 AUDIO
    TITLE "31:cjc160_1899"
    INDEX 01 13:55:67
  TRACK 603 AUDIO
    TITLE "0:"
    INDEX 01 13:57:11
  TRACK 604 AUDIO
    TITLE "32:cjc160_1900"
    INDEX 01 13:57:55
  TRACK 605 AUDIO
    TITLE "0:"
    INDEX 01 14:00:02
  TRACK 606 AUDIO
    TITLE "33:cjc160_1901"
    INDEX 01 14:00:43
  TRACK 607 AUDIO
    TITLE "0:"
    INDEX 01 14:02:69
  TRACK 608 AUDIO
    TITLE "34:cjc160_1902"
    INDEX 01 14:03:32
  TRACK 609 AUDIO
    TITLE "0:"
    INDEX 01 14:05:64
  TRACK 610 AUDIO
    TITLE "35:cjc160_1903"
    INDEX 01 14:06:14
  TRACK 611 AUDIO
    TITLE "0:"
    INDEX 01 14:08:48
  TRACK 612 AUDIO
    TITLE "31:cjc160_1904"
    INDEX 01 14:09:48
  TRACK 613 AUDIO
    TITLE "0:"
    INDEX 01 14:11:08
  TRACK 614 AUDIO
    TITLE "32:cjc160_1905"
    INDEX 01 14:11:47
  TRACK 615 AUDIO
    TITLE "0:"
    INDEX 01 14:12:68
  TRACK 616 AUDIO
    TITLE "33:cjc160_1906"
    INDEX 01 14:13:30
  TRACK 617 AUDIO
    TITLE "0:"
    INDEX 01 14:15:09
  TRACK 618 AUDIO
    TITLE "34:cjc160_1907"
    INDEX 01 14:15:49
  TRACK 619 AUDIO
    TITLE "0:"
    INDEX 01 14:17:69
  TRACK 620 AUDIO
    TITLE "35:cjc160_1908"
    INDEX 01 14:18:23
  TRACK 621 AUDIO
    TITLE "0:"
    INDEX 01 14:20:42
  TRACK 622 AUDIO
    TITLE "31:cjc160_1909"
    INDEX 01 14:21:43
  TRACK 623 AUDIO
    TITLE "0:"
    INDEX 01 14:23:01
  TRACK 624 AUDIO
    TITLE "32:cjc160_1910"
    INDEX 01 14:23:36
  TRACK 625 AUDIO
    TITLE "0:"
    INDEX 01 14:24:67
  TRACK 626 AUDIO
    TITLE "33:cjc160_1911"
    INDEX 01 14:25:31
  TRACK 627 AUDIO
    TITLE "0:"
    INDEX 01 14:27:07
  TRACK 628 AUDIO
    TITLE "34:cjc160_1912"
    INDEX 01 14:27:46
  TRACK 629 AUDIO
    TITLE "0:"
    INDEX 01 14:29:29
  TRACK 630 AUDIO
    TITLE "35:cjc160_1913"
    INDEX 01 14:29:57
  TRACK 631 AUDIO
    TITLE "0:"
    INDEX 01 14:31:40
  TRACK 632 AUDIO
    TITLE "31:cjc160_1914"
    INDEX 01 14:32:41
  TRACK 633 AUDIO
    TITLE "0:"
    INDEX 01 14:33:58
  TRACK 634 AUDIO
    TITLE "32:cjc160_1915"
    INDEX 01 14:34:22
  TRACK 635 AUDIO
    TITLE "0:"
    INDEX 01 14:35:34
  TRACK 636 AUDIO
    TITLE "33:cjc160_1916"
    INDEX 01 14:35:71
  TRACK 637 AUDIO
    TITLE "0:"
    INDEX 01 14:37:62
  TRACK 638 AUDIO
    TITLE "34:cjc160_1917"
    INDEX 01 14:38:26
  TRACK 639 AUDIO
    TITLE "0:"
    INDEX 01 14:40:23
  TRACK 640 AUDIO
    TITLE "35:cjc160_1918"
    INDEX 01 14:40:52
  TRACK 641 AUDIO
    TITLE "0:"
    INDEX 01 14:42:51
  TRACK 642 AUDIO
    TITLE "31:cjc160_1919"
    INDEX 01 14:43:55
  TRACK 643 AUDIO
    TITLE "0:"
    INDEX 01 14:45:20
  TRACK 644 AUDIO
    TITLE "32:cjc160_1920"
    INDEX 01 14:45:61
  TRACK 645 AUDIO
    TITLE "0:"
    INDEX 01 14:47:52
  TRACK 646 AUDIO
    TITLE "33:cjc160_1921"
    INDEX 01 14:48:15
  TRACK 647 AUDIO
    TITLE "0:"
    INDEX 01 14:50:74
  TRACK 648 AUDIO
    TITLE "34:cjc160_1922"
    INDEX 01 14:51:39
  TRACK 649 AUDIO
    TITLE "0:"
    INDEX 01 14:54:53
  TRACK 650 AUDIO
    TITLE "35:cjc160_1923"
    INDEX 01 14:55:05
  TRACK 651 AUDIO
    TITLE "0:"
    INDEX 01 14:58:17
  TRACK 652 AUDIO
    TITLE "31:cjc160_1924"
    INDEX 01 14:59:18
  TRACK 653 AUDIO
    TITLE "0:"
    INDEX 01 15:00:28
  TRACK 654 AUDIO
    TITLE "32:cjc160_1925"
    INDEX 01 15:00:65
  TRACK 655 AUDIO
    TITLE "0:"
    INDEX 01 15:04:16
  TRACK 656 AUDIO
    TITLE "33:cjc160_1926"
    INDEX 01 15:04:69
  TRACK 657 AUDIO
    TITLE "0:"
    INDEX 01 15:07:67
  TRACK 658 AUDIO
    TITLE "34:cjc160_1927"
    INDEX 01 15:08:41
  TRACK 659 AUDIO
    TITLE "0:"
    INDEX 01 15:11:04
  TRACK 660 AUDIO
    TITLE "35:cjc160_1928"
    INDEX 01 15:11:37
  TRACK 661 AUDIO
    TITLE "0:"
    INDEX 01 15:14:00
  TRACK 662 AUDIO
    TITLE "31:cjc160_1929"
    INDEX 01 15:15:00
  TRACK 663 AUDIO
    TITLE "0:"
    INDEX 01 15:16:15
  TRACK 664 AUDIO
    TITLE "32:cjc160_1930"
    INDEX 01 15:16:54
  TRACK 665 AUDIO
    TITLE "0:"
    INDEX 01 15:19:49
  TRACK 666 AUDIO
    TITLE "33:cjc160_1931"
    INDEX 01 15:20:11
  TRACK 667 AUDIO
    TITLE "0:"
    INDEX 01 15:22:16
  TRACK 668 AUDIO
    TITLE "34:cjc160_1932"
    INDEX 01 15:22:53
  TRACK 669 AUDIO
    TITLE "0:"
    INDEX 01 15:24:63
  TRACK 670 AUDIO
    TITLE "35:cjc160_1933"
    INDEX 01 15:25:14
  TRACK 671 AUDIO
    TITLE "0:"
    INDEX 01 15:27:23
  TRACK 672 AUDIO
    TITLE "31:cjc160_1934"
    INDEX 01 15:28:22
  TRACK 673 AUDIO
    TITLE "0:"
    INDEX 01 15:29:53
  TRACK 674 AUDIO
    TITLE "32:cjc160_1935"
    INDEX 01 15:30:15
  TRACK 675 AUDIO
    TITLE "0:"
    INDEX 01 15:33:15
  TRACK 676 AUDIO
    TITLE "33:cjc160_1936"
    INDEX 01 15:33:53
  TRACK 677 AUDIO
    TITLE "0:"
    INDEX 01 15:36:49
  TRACK 678 AUDIO
    TITLE "34:cjc160_1937"
    INDEX 01 15:37:13
  TRACK 679 AUDIO
    TITLE "0:"
    INDEX 01 15:39:26
  TRACK 680 AUDIO
    TITLE "35:cjc160_1938"
    INDEX 01 15:39:49
  TRACK 681 AUDIO
    TITLE "0:"
    INDEX 01 15:41:64
  TRACK 682 AUDIO
    TITLE "31:cjc160_1939"
    INDEX 01 15:42:63
  TRACK 683 AUDIO
    TITLE "0:"
    INDEX 01 15:44:13
  TRACK 684 AUDIO
    TITLE "32:cjc160_1940"
    INDEX 01 15:44:52
  TRACK 685 AUDIO
    TITLE "0:"
    INDEX 01 15:45:64
  TRACK 686 AUDIO
    TITLE "33:cjc160_1941"
    INDEX 01 15:46:28
  TRACK 687 AUDIO
    TITLE "0:"
    INDEX 01 15:49:59
  TRACK 688 AUDIO
    TITLE "34:cjc160_1942"
    INDEX 01 15:50:22
  TRACK 689 AUDIO
    TITLE "0:"
    INDEX 01 15:53:12
  TRACK 690 AUDIO
    TITLE "35:cjc160_1943"
    INDEX 01 15:53:38
  TRACK 691 AUDIO
    TITLE "0:"
    INDEX 01 15:56:26
  TRACK 692 AUDIO
    TITLE "31:cjc160_1944"
    INDEX 01 15:57:28
  TRACK 693 AUDIO
    TITLE "0:"
    INDEX 01 15:58:55
  TRACK 694 AUDIO
    TITLE "32:cjc160_1945"
    INDEX 01 15:59:17
  TRACK 695 AUDIO
    TITLE "0:"
    INDEX 01 16:00:67
  TRACK 696 AUDIO
    TITLE "33:cjc160_1946"
    INDEX 01 16:01:31
  TRACK 697 AUDIO
    TITLE "0:"
    INDEX 01 16:04:43
  TRACK 698 AUDIO
    TITLE "34:cjc160_1947"
    INDEX 01 16:05:08
  TRACK 699 AUDIO
    TITLE "0:"
    INDEX 01 16:07:28
  TRACK 700 AUDIO
    TITLE "35:cjc160_1948"
    INDEX 01 16:07:53
  TRACK 701 AUDIO
    TITLE "0:"
    INDEX 01 16:09:74
  TRACK 702 AUDIO
    TITLE "31:cjc160_1949"
    INDEX 01 16:10:73
  TRACK 703 AUDIO
    TITLE "0:"
    INDEX 01 16:12:08
  TRACK 704 AUDIO
    TITLE "32:cjc160_1950"
    INDEX 01 16:12:47
  TRACK 705 AUDIO
    TITLE "0:"
    INDEX 01 16:14:40
  TRACK 706 AUDIO
    TITLE "33:cjc160_1951"
    INDEX 01 16:15:10
  TRACK 707 AUDIO
    TITLE "0:"
    INDEX 01 16:17:34
  TRACK 708 AUDIO
    TITLE "34:cjc160_1952"
    INDEX 01 16:17:73
  TRACK 709 AUDIO
    TITLE "0:"
    INDEX 01 16:19:70
  TRACK 710 AUDIO
    TITLE "35:cjc160_1953"
    INDEX 01 16:20:21
  TRACK 711 AUDIO
    TITLE "0:"
    INDEX 01 16:22:18
  TRACK 712 AUDIO
    TITLE "31:cjc160_1954"
    INDEX 01 16:23:19
  TRACK 713 AUDIO
    TITLE "0:"
    INDEX 01 16:24:34
  TRACK 714 AUDIO
    TITLE "32:cjc160_1955"
    INDEX 01 16:24:70
  TRACK 715 AUDIO
    TITLE "0:"
    INDEX 01 16:26:45
  TRACK 716 AUDIO
    TITLE "33:cjc160_1956"
    INDEX 01 16:27:11
  TRACK 717 AUDIO
    TITLE "0:"
    INDEX 01 16:29:65
  TRACK 718 AUDIO
    TITLE "34:cjc160_1957"
    INDEX 01 16:30:27
  TRACK 719 AUDIO
    TITLE "0:"
    INDEX 01 16:32:38
  TRACK 720 AUDIO
    TITLE "35:cjc160_1958"
    INDEX 01 16:32:63
  TRACK 721 AUDIO
    TITLE "0:"
    INDEX 01 16:34:72
  TRACK 722 AUDIO
    TITLE "31:cjc160_1959"
    INDEX 01 16:35:73
  TRACK 723 AUDIO
    TITLE "0:"
    INDEX 01 16:37:19
  TRACK 724 AUDIO
    TITLE "32:cjc160_1960"
    INDEX 01 16:37:57
  TRACK 725 AUDIO
    TITLE "0:"
    INDEX 01 16:40:45
  TRACK 726 AUDIO
    TITLE "33:cjc160_1961"
    INDEX 01 16:41:09
  TRACK 727 AUDIO
    TITLE "0:"
    INDEX 01 16:43:43
  TRACK 728 AUDIO
    TITLE "34:cjc160_1962"
    INDEX 01 16:44:08
  TRACK 729 AUDIO
    TITLE "0:"
    INDEX 01 16:46:24
  TRACK 730 AUDIO
    TITLE "35:cjc160_1963"
    INDEX 01 16:46:50
  TRACK 731 AUDIO
    TITLE "0:"
    INDEX 01 16:48:68
  TRACK 732 AUDIO
    TITLE "31:cjc160_1964"
    INDEX 01 16:49:68
  TRACK 733 AUDIO
    TITLE "0:"
    INDEX 01 16:51:06
  TRACK 734 AUDIO
    TITLE "32:cjc160_1965"
    INDEX 01 16:51:57
  TRACK 735 AUDIO
    TITLE "0:"
    INDEX 01 16:53:16
  TRACK 736 AUDIO
    TITLE "33:cjc160_1966"
    INDEX 01 16:53:57
  TRACK 737 AUDIO
    TITLE "0:"
    INDEX 01 16:56:50
  TRACK 738 AUDIO
    TITLE "34:cjc160_1967"
    INDEX 01 16:57:14
  TRACK 739 AUDIO
    TITLE "0:"
    INDEX 01 16:59:60
  TRACK 740 AUDIO
    TITLE "35:cjc160_1968"
    INDEX 01 17:00:11
  TRACK 741 AUDIO
    TITLE "0:"
    INDEX 01 17:02:56
  TRACK 742 AUDIO
    TITLE "31:cjc160_1969"
    INDEX 01 17:03:56
  TRACK 743 AUDIO
    TITLE "0:"
    INDEX 01 17:04:61
  TRACK 744 AUDIO
    TITLE "32:cjc160_1970"
    INDEX 01 17:05:21
  TRACK 745 AUDIO
    TITLE "0:"
    INDEX 01 17:08:49
  TRACK 746 AUDIO
    TITLE "33:cjc160_1971"
    INDEX 01 17:09:11
  TRACK 747 AUDIO
    TITLE "0:"
    INDEX 01 17:11:01
  TRACK 748 AUDIO
    TITLE "34:cjc160_1972"
    INDEX 01 17:11:38
  TRACK 749 AUDIO
    TITLE "0:"
    INDEX 01 17:13:48
  TRACK 750 AUDIO
    TITLE "35:cjc160_1973"
    INDEX 01 17:13:74
  TRACK 751 AUDIO
    TITLE "0:"
    INDEX 01 17:16:08
  TRACK 752 AUDIO
    TITLE "31:cjc160_1974"
    INDEX 01 17:17:07
  TRACK 753 AUDIO
    TITLE "0:"
    INDEX 01 17:18:55
  TRACK 754 AUDIO
    TITLE "32:cjc160_1975"
    INDEX 01 17:19:18
  TRACK 755 AUDIO
    TITLE "0:"
    INDEX 01 17:20:25
  TRACK 756 AUDIO
    TITLE "33:cjc160_1976"
    INDEX 01 17:20:62
  TRACK 757 AUDIO
    TITLE "0:"
    INDEX 01 17:22:49
  TRACK 758 AUDIO
    TITLE "34:cjc160_1977"
    INDEX 01 17:23:12
  TRACK 759 AUDIO
    TITLE "0:"
    INDEX 01 17:25:59
  TRACK 760 AUDIO
    TITLE "35:cjc160_1978"
    INDEX 01 17:26:06
  TRACK 761 AUDIO
    TITLE "0:"
    INDEX 01 17:28:50
  TRACK 762 AUDIO
    TITLE "31:cjc160_1979"
    INDEX 01 17:29:47
  TRACK 763 AUDIO
    TITLE "0:"
    INDEX 01 17:30:70
  TRACK 764 AUDIO
    TITLE "32:cjc160_1980"
    INDEX 01 17:31:39
  TRACK 765 AUDIO
    TITLE "0:"
    INDEX 01 17:32:61
  TRACK 766 AUDIO
    TITLE "33:cjc160_1981"
    INDEX 01 17:33:26
  TRACK 767 AUDIO
    TITLE "0:"
    INDEX 01 17:35:72
  TRACK 768 AUDIO
    TITLE "34:cjc160_1982"
    INDEX 01 17:36:38
  TRACK 769 AUDIO
    TITLE "0:"
    INDEX 01 17:38:54
  TRACK 770 AUDIO
    TITLE "35:cjc160_1983"
    INDEX 01 17:39:07
  TRACK 771 AUDIO
    TITLE "0:"
    INDEX 01 17:41:21
  TRACK 772 AUDIO
    TITLE "31:cjc160_1984"
    INDEX 01 17:42:23
  TRACK 773 AUDIO
    TITLE "0:"
    INDEX 01 17:43:48
  TRACK 774 AUDIO
    TITLE "32:cjc160_1985"
    INDEX 01 17:44:10
  TRACK 775 AUDIO
    TITLE "0:"
    INDEX 01 17:45:25
  TRACK 776 AUDIO
    TITLE "33:cjc160_1986"
    INDEX 01 17:45:62
  TRACK 777 AUDIO
    TITLE "0:"
    INDEX 01 17:48:60
  TRACK 778 AUDIO
    TITLE "34:cjc160_1987"
    INDEX 01 17:49:23
  TRACK 779 AUDIO
    TITLE "0:"
    INDEX 01 17:52:00
  TRACK 780 AUDIO
    TITLE "35:cjc160_1988"
    INDEX 01 17:52:39
  TRACK 781 AUDIO
    TITLE "0:"
    INDEX 01 17:55:25
  TRACK 782 AUDIO
    TITLE "31:cjc160_1989"
    INDEX 01 17:56:29
  TRACK 783 AUDIO
    TITLE "0:"
    INDEX 01 17:57:63
  TRACK 784 AUDIO
    TITLE "32:cjc160_1990"
    INDEX 01 17:58:28
  TRACK 785 AUDIO
    TITLE "0:"
    INDEX 01 18:01:40
  TRACK 786 AUDIO
    TITLE "33:cjc160_1991"
    INDEX 01 18:02:02
  TRACK 787 AUDIO
    TITLE "0:"
    INDEX 01 18:05:04
  TRACK 788 AUDIO
    TITLE "34:cjc160_1992"
    INDEX 01 18:05:43
  TRACK 789 AUDIO
    TITLE "0:"
    INDEX 01 18:07:68
  TRACK 790 AUDIO
    TITLE "35:cjc160_1993"
    INDEX 01 18:08:18
  TRACK 791 AUDIO
    TITLE "0:"
    INDEX 01 18:10:42
  TRACK 792 AUDIO
    TITLE "31:cjc160_1994"
    INDEX 01 18:11:42
  TRACK 793 AUDIO
    TITLE "0:"
    INDEX 01 18:13:00
  TRACK 794 AUDIO
    TITLE "32:cjc160_1995"
    INDEX 01 18:13:37
  TRACK 795 AUDIO
    TITLE "0:"
    INDEX 01 18:14:42
  TRACK 796 AUDIO
    TITLE "33:cjc160_1996"
    INDEX 01 18:15:08
  TRACK 797 AUDIO
    TITLE "0:"
    INDEX 01 18:16:65
  TRACK 798 AUDIO
    TITLE "34:cjc160_1997"
    INDEX 01 18:17:27
  TRACK 799 AUDIO
    TITLE "0:"
    INDEX 01 18:19:47
  TRACK 800 AUDIO
    TITLE "35:cjc160_1998"
    INDEX 01 18:20:00
  TRACK 801 AUDIO
    TITLE "0:"
    INDEX 01 18:22:16
  TRACK 802 AUDIO
    TITLE "31:cjc160_1999"
    INDEX 01 18:23:18
  TRACK 803 AUDIO
    TITLE "0:"
    INDEX 01 18:24:39
  TRACK 804 AUDIO
    TITLE "32:cjc160_2000"
    INDEX 01 18:25:03
  TRACK 805 AUDIO
    TITLE "0:"
    INDEX 01 18:27:59
  TRACK 806 AUDIO
    TITLE "33:cjc160_2001"
    INDEX 01 18:28:21
  TRACK 807 AUDIO
    TITLE "0:"
    INDEX 01 18:30:55
  TRACK 808 AUDIO
    TITLE "34:cjc160_2002"
    INDEX 01 18:31:19
  TRACK 809 AUDIO
    TITLE "0:"
    INDEX 01 18:33:32
  TRACK 810 AUDIO
    TITLE "35:cjc160_2003"
    INDEX 01 18:33:57
  TRACK 811 AUDIO
    TITLE "0:"
    INDEX 01 18:35:70
  TRACK 812 AUDIO
    TITLE "31:cjc160_2004"
    INDEX 01 18:36:69
  TRACK 813 AUDIO
    TITLE "0:"
    INDEX 01 18:38:64
  TRACK 814 AUDIO
    TITLE "32:cjc160_2005"
    INDEX 01 18:39:27
  TRACK 815 AUDIO
    TITLE "0:"
    INDEX 01 18:42:05
  TRACK 816 AUDIO
    TITLE "33:cjc160_2006"
    INDEX 01 18:42:52
  TRACK 817 AUDIO
    TITLE "0:"
    INDEX 01 18:45:31
  TRACK 818 AUDIO
    TITLE "34:cjc160_2007"
    INDEX 01 18:45:70
  TRACK 819 AUDIO
    TITLE "0:"
    INDEX 01 18:48:31
  TRACK 820 AUDIO
    TITLE "35:cjc160_2008"
    INDEX 01 18:48:55
  TRACK 821 AUDIO
    TITLE "0:"
    INDEX 01 18:51:14
  TRACK 822 AUDIO
    TITLE "31:cjc160_2009"
    INDEX 01 18:52:15
  TRACK 823 AUDIO
    TITLE "0:"
    INDEX 01 18:53:31
  TRACK 824 AUDIO
    TITLE "32:cjc160_2010"
    INDEX 01 18:53:68
  TRACK 825 AUDIO
    TITLE "0:"
    INDEX 01 18:56:15
  TRACK 826 AUDIO
    TITLE "33:cjc160_2011"
    INDEX 01 18:56:54
  TRACK 827 AUDIO
    TITLE "0:"
    INDEX 01 18:59:31
  TRACK 828 AUDIO
    TITLE "34:cjc160_2012"
    INDEX 01 18:59:66
  TRACK 829 AUDIO
    TITLE "0:"
    INDEX 01 19:02:26
  TRACK 830 AUDIO
    TITLE "35:cjc160_2013"
    INDEX 01 19:02:49
  TRACK 831 AUDIO
    TITLE "0:"
    INDEX 01 19:05:08
  TRACK 832 AUDIO
    TITLE "31:cjc160_2014"
    INDEX 01 19:06:08
  TRACK 833 AUDIO
    TITLE "0:"
    INDEX 01 19:07:27
  TRACK 834 AUDIO
    TITLE "32:cjc160_2015"
    INDEX 01 19:07:66
  TRACK 835 AUDIO
    TITLE "0:"
    INDEX 01 19:09:00
  TRACK 836 AUDIO
    TITLE "33:cjc160_2016"
    INDEX 01 19:09:41
  TRACK 837 AUDIO
    TITLE "0:"
    INDEX 01 19:11:09
  TRACK 838 AUDIO
    TITLE "34:cjc160_2017"
    INDEX 01 19:11:48
  TRACK 839 AUDIO
    TITLE "0:"
    INDEX 01 19:13:43
  TRACK 840 AUDIO
    TITLE "35:cjc160_2018"
    INDEX 01 19:13:69
  TRACK 841 AUDIO
    TITLE "0:"
    INDEX 01 19:15:62
  TRACK 842 AUDIO
    TITLE "31:cjc160_2019"
    INDEX 01 19:16:63
  TRACK 843 AUDIO
    TITLE "0:"
    INDEX 01 19:17:68
  TRACK 844 AUDIO
    TITLE "32:cjc160_2020"
    INDEX 01 19:18:32
  TRACK 845 AUDIO
    TITLE "0:"
    INDEX 01 19:20:61
  TRACK 846 AUDIO
    TITLE "33:cjc160_2021"
    INDEX 01 19:21:25
  TRACK 847 AUDIO
    TITLE "0:"
    INDEX 01 19:24:02
  TRACK 848 AUDIO
    TITLE "34:cjc160_2022"
    INDEX 01 19:24:39
  TRACK 849 AUDIO
    TITLE "0:"
    INDEX 01 19:27:06
  TRACK 850 AUDIO
    TITLE "35:cjc160_2023"
    INDEX 01 19:27:29
  TRACK 851 AUDIO
    TITLE "0:"
    INDEX 01 19:29:70
  TRACK 852 AUDIO
    TITLE "31:cjc160_2024"
    INDEX 01 19:30:69
  TRACK 853 AUDIO
    TITLE "0:"
    INDEX 01 19:32:38
  TRACK 854 AUDIO
    TITLE "32:cjc160_2025"
    INDEX 01 19:33:01
  TRACK 855 AUDIO
    TITLE "0:"
    INDEX 01 19:34:35
  TRACK 856 AUDIO
    TITLE "33:cjc160_2026"
    INDEX 01 19:35:00
  TRACK 857 AUDIO
    TITLE "0:"
    INDEX 01 19:37:65
  TRACK 858 AUDIO
    TITLE "34:cjc160_2027"
    INDEX 01 19:38:27
  TRACK 859 AUDIO
    TITLE "0:"
    INDEX 01 19:40:69
  TRACK 860 AUDIO
    TITLE "35:cjc160_2028"
    INDEX 01 19:41:20
  TRACK 861 AUDIO
    TITLE "0:"
    INDEX 01 19:43:62
  TRACK 862 AUDIO
    TITLE "31:cjc160_2029"
    INDEX 01 19:44:63
  TRACK 863 AUDIO
    TITLE "0:"
    INDEX 01 19:45:74
  TRACK 864 AUDIO
    TITLE "32:cjc160_2030"
    INDEX 01 19:46:39
  TRACK 865 AUDIO
    TITLE "0:"
    INDEX 01 19:47:69
  TRACK 866 AUDIO
    TITLE "33:cjc160_2031"
    INDEX 01 19:48:36
  TRACK 867 AUDIO
    TITLE "0:"
    INDEX 01 19:50:31
  TRACK 868 AUDIO
    TITLE "34:cjc160_2032"
    INDEX 01 19:50:68
  TRACK 869 AUDIO
    TITLE "0:"
    INDEX 01 19:52:69
  TRACK 870 AUDIO
    TITLE "35:cjc160_2033"
    INDEX 01 19:53:17
  TRACK 871 AUDIO
    TITLE "0:"
    INDEX 01 19:55:18
  TRACK 872 AUDIO
    TITLE "31:cjc160_2034"
    INDEX 01 19:56:17
  TRACK 873 AUDIO
    TITLE "0:"
    INDEX 01 19:57:42
  TRACK 874 AUDIO
    TITLE "32:cjc160_2035"
    INDEX 01 19:58:05
  TRACK 875 AUDIO
    TITLE "0:"
    INDEX 01 19:59:16
  TRACK 876 AUDIO
    TITLE "33:cjc160_2036"
    INDEX 01 19:59:55
  TRACK 877 AUDIO
    TITLE "0:"
    INDEX 01 20:02:08
  TRACK 878 AUDIO
    TITLE "34:cjc160_2037"
    INDEX 01 20:02:45
  TRACK 879 AUDIO
    TITLE "0:"
    INDEX 01 20:04:72
  TRACK 880 AUDIO
    TITLE "35:cjc160_2038"
    INDEX 01 20:05:22
  TRACK 881 AUDIO
    TITLE "0:"
    INDEX 01 20:07:49
  TRACK 882 AUDIO
    TITLE "31:cjc160_2039"
    INDEX 01 20:08:50
  TRACK 883 AUDIO
    TITLE "0:"
    INDEX 01 20:10:12
  TRACK 884 AUDIO
    TITLE "32:cjc160_2040"
    INDEX 01 20:10:51
  TRACK 885 AUDIO
    TITLE "0:"
    INDEX 01 20:12:16
  TRACK 886 AUDIO
    TITLE "33:cjc160_2041"
    INDEX 01 20:12:56
  TRACK 887 AUDIO
    TITLE "0:"
    INDEX 01 20:14:49
  TRACK 888 AUDIO
    TITLE "34:cjc160_2042"
    INDEX 01 20:15:13
  TRACK 889 AUDIO
    TITLE "0:"
    INDEX 01 20:17:21
  TRACK 890 AUDIO
    TITLE "35:cjc160_2043"
    INDEX 01 20:17:47
  TRACK 891 AUDIO
    TITLE "0:"
    INDEX 01 20:19:58
  TRACK 892 AUDIO
    TITLE "31:cjc160_2044"
    INDEX 01 20:20:57
  TRACK 893 AUDIO
    TITLE "0:"
    INDEX 01 20:22:25
  TRACK 894 AUDIO
    TITLE "32:cjc160_2045"
    INDEX 01 20:22:64
  TRACK 895 AUDIO
    TITLE "0:"
    INDEX 01 20:24:02
  TRACK 896 AUDIO
    TITLE "33:cjc160_2046"
    INDEX 01 20:24:39
  TRACK 897 AUDIO
    TITLE "0:"
    INDEX 01 20:26:38
  TRACK 898 AUDIO
    TITLE "34:cjc160_2047"
    INDEX 01 20:27:02
  TRACK 899 AUDIO
    TITLE "0:"
    INDEX 01 20:28:66
  TRACK 900 AUDIO
    TITLE "35:cjc160_2048"
    INDEX 01 20:29:15
  TRACK 901 AUDIO
    TITLE "0:"
    INDEX 01 20:31:04
  TRACK 902 AUDIO
    TITLE "31:cjc160_2049"
    INDEX 01 20:32:01
  TRACK 903 AUDIO
    TITLE "0:"
    INDEX 01 20:35:17
  TRACK 904 AUDIO
    TITLE "32:cjc160_2050"
    INDEX 01 20:35:55
  TRACK 905 AUDIO
    TITLE "0:"
    INDEX 01 20:37:50
  TRACK 906 AUDIO
    TITLE "33:cjc160_2051"
    INDEX 01 20:38:22
  TRACK 907 AUDIO
    TITLE "0:"
    INDEX 01 20:40:24
  TRACK 908 AUDIO
    TITLE "34:cjc160_2052"
    INDEX 01 20:40:62
  TRACK 909 AUDIO
    TITLE "0:"
    INDEX 01 20:43:56
  TRACK 910 AUDIO
    TITLE "35:cjc160_2053"
    INDEX 01 20:44:05
  TRACK 911 AUDIO
    TITLE "0:"
    INDEX 01 20:46:72
  TRACK 912 AUDIO
    TITLE "31:cjc160_2054"
    INDEX 01 20:48:01
  TRACK 913 AUDIO
    TITLE "0:"
    INDEX 01 20:49:12
  TRACK 914 AUDIO
    TITLE "32:cjc160_2055"
    INDEX 01 20:49:49
  TRACK 915 AUDIO
    TITLE "0:"
    INDEX 01 20:52:22
  TRACK 916 AUDIO
    TITLE "33:cjc160_2056"
    INDEX 01 20:52:61
  TRACK 917 AUDIO
    TITLE "0:"
    INDEX 01 20:55:48
  TRACK 918 AUDIO
    TITLE "34:cjc160_2057"
    INDEX 01 20:56:16
  TRACK 919 AUDIO
    TITLE "0:"
    INDEX 01 20:58:64
  TRACK 920 AUDIO
    TITLE "35:cjc160_2058"
    INDEX 01 20:59:16
  TRACK 921 AUDIO
    TITLE "0:"
    INDEX 01 21:01:62
  TRACK 922 AUDIO
    TITLE "31:cjc160_2059"
    INDEX 01 21:02:63
  TRACK 923 AUDIO
    TITLE "0:"
    INDEX 01 21:03:67
  TRACK 924 AUDIO
    TITLE "32:cjc160_2060"
    INDEX 01 21:04:29
  TRACK 925 AUDIO
    TITLE "0:"
    INDEX 01 21:07:10
  TRACK 926 AUDIO
    TITLE "33:cjc160_2061"
    INDEX 01 21:07:53
  TRACK 927 AUDIO
    TITLE "0:"
    INDEX 01 21:09:61
  TRACK 928 AUDIO
    TITLE "34:cjc160_2062"
    INDEX 01 21:10:33
  TRACK 929 AUDIO
    TITLE "0:"
    INDEX 01 21:12:36
  TRACK 930 AUDIO
    TITLE "35:cjc160_2063"
    INDEX 01 21:12:68
  TRACK 931 AUDIO
    TITLE "0:"
    INDEX 01 21:14:72
  TRACK 932 AUDIO
    TITLE "31:cjc160_2064"
    INDEX 01 21:16:03
  TRACK 933 AUDIO
    TITLE "0:"
    INDEX 01 21:17:34
  TRACK 934 AUDIO
    TITLE "32:cjc160_2065"
    INDEX 01 21:17:71
  TRACK 935 AUDIO
    TITLE "0:"
    INDEX 01 21:19:44
  TRACK 936 AUDIO
    TITLE "33:cjc160_2066"
    INDEX 01 21:20:08
  TRACK 937 AUDIO
    TITLE "0:"
    INDEX 01 21:22:62
  TRACK 938 AUDIO
    TITLE "34:cjc160_2067"
    INDEX 01 21:23:26
  TRACK 939 AUDIO
    TITLE "0:"
    INDEX 01 21:25:13
  TRACK 940 AUDIO
    TITLE "35:cjc160_2068"
    INDEX 01 21:25:37
  TRACK 941 AUDIO
    TITLE "0:"
    INDEX 01 21:27:24
  TRACK 942 AUDIO
    TITLE "31:cjc160_2069"
    INDEX 01 21:28:24
  TRACK 943 AUDIO
    TITLE "0:"
    INDEX 01 21:29:60
  TRACK 944 AUDIO
    TITLE "32:cjc160_2070"
    INDEX 01 21:30:20
  TRACK 945 AUDIO
    TITLE "0:"
    INDEX 01 21:33:27
  TRACK 946 AUDIO
    TITLE "33:cjc160_2071"
    INDEX 01 21:33:66
  TRACK 947 AUDIO
    TITLE "0:"
    INDEX 01 21:38:16
  TRACK 948 AUDIO
    TITLE "34:cjc160_2072"
    INDEX 01 21:38:57
  TRACK 949 AUDIO
    TITLE "0:"
    INDEX 01 21:41:61
  TRACK 950 AUDIO
    TITLE "35:cjc160_2073"
    INDEX 01 21:42:12
  TRACK 951 AUDIO
    TITLE "0:"
    INDEX 01 21:45:18
  TRACK 952 AUDIO
    TITLE "31:cjc160_2074"
    INDEX 01 21:46:18
  TRACK 953 AUDIO
    TITLE "0:"
    INDEX 01 21:47:31
  TRACK 954 AUDIO
    TITLE "32:cjc160_2075"
    INDEX 01 21:47:66
  TRACK 955 AUDIO
    TITLE "0:"
    INDEX 01 21:50:13
  TRACK 956 AUDIO
    TITLE "33:cjc160_2076"
    INDEX 01 21:50:55
  TRACK 957 AUDIO
    TITLE "0:"
    INDEX 01 21:52:12
  TRACK 958 AUDIO
    TITLE "34:cjc160_2077"
    INDEX 01 21:52:55
  TRACK 959 AUDIO
    TITLE "0:"
    INDEX 01 21:54:68
  TRACK 960 AUDIO
    TITLE "35:cjc160_2078"
    INDEX 01 21:55:18
  TRACK 961 AUDIO
    TITLE "0:"
    INDEX 01 21:57:31
  TRACK 962 AUDIO
    TITLE "31:cjc160_2079"
    INDEX 01 21:58:31
  TRACK 963 AUDIO
    TITLE "0:"
    INDEX 01 21:59:28
  TRACK 964 AUDIO
    TITLE "32:cjc160_2080"
    INDEX 01 22:00:00
  TRACK 965 AUDIO
    TITLE "0:"
    INDEX 01 22:01:07
  TRACK 966 AUDIO
    TITLE "33:cjc160_2081"
    INDEX 01 22:01:46
  TRACK 967 AUDIO
    TITLE "0:"
    INDEX 01 22:04:02
  TRACK 968 AUDIO
    TITLE "34:cjc160_2082"
    INDEX 01 22:04:39
  TRACK 969 AUDIO
    TITLE "0:"
    INDEX 01 22:06:52
  TRACK 970 AUDIO
    TITLE "35:cjc160_2083"
    INDEX 01 22:07:02
  TRACK 971 AUDIO
    TITLE "0:"
    INDEX 01 22:09:15
  TRACK 972 AUDIO
    TITLE "31:cjc160_2084"
    INDEX 01 22:10:14
  TRACK 973 AUDIO
    TITLE "0:"
    INDEX 01 22:11:23
  TRACK 974 AUDIO
    TITLE "32:cjc160_2085"
    INDEX 01 22:11:63
  TRACK 975 AUDIO
    TITLE "0:"
    INDEX 01 22:15:29
  TRACK 976 AUDIO
    TITLE "33:cjc160_2086"
    INDEX 01 22:15:62
  TRACK 977 AUDIO
    TITLE "0:"
    INDEX 01 22:18:18
  TRACK 978 AUDIO
    TITLE "34:cjc160_2087"
    INDEX 01 22:18:55
  TRACK 979 AUDIO
    TITLE "0:"
    INDEX 01 22:20:65
  TRACK 980 AUDIO
    TITLE "35:cjc160_2088"
    INDEX 01 22:21:28
  TRACK 981 AUDIO
    TITLE "0:"
    INDEX 01 22:23:36
  TRACK 982 AUDIO
    TITLE "31:cjc160_2089"
    INDEX 01 22:24:48
  TRACK 983 AUDIO
    TITLE "0:"
    INDEX 01 22:25:67
  TRACK 984 AUDIO
    TITLE "32:cjc160_2090"
    INDEX 01 22:26:27
  TRACK 985 AUDIO
    TITLE "0:"
    INDEX 01 22:27:52
  TRACK 986 AUDIO
    TITLE "33:cjc160_2091"
    INDEX 01 22:28:16
  TRACK 987 AUDIO
    TITLE "0:"
    INDEX 01 22:30:68
  TRACK 988 AUDIO
    TITLE "34:cjc160_2092"
    INDEX 01 22:31:30
  TRACK 989 AUDIO
    TITLE "0:"
    INDEX 01 22:33:52
  TRACK 990 AUDIO
    TITLE "35:cjc160_2093"
    INDEX 01 22:34:03
  TRACK 991 AUDIO
    TITLE "0:"
    INDEX 01 22:36:25
  TRACK 992 AUDIO
    TITLE "31:cjc160_2094"
    INDEX 01 22:37:25
  TRACK 993 AUDIO
    TITLE "0:"
    INDEX 01 22:38:63
  TRACK 994 AUDIO
    TITLE "32:cjc160_2095"
    INDEX 01 22:39:26
  TRACK 995 AUDIO
    TITLE "0:"
    INDEX 01 22:40:23
  TRACK 996 AUDIO
    TITLE "33:cjc160_2096"
    INDEX 01 22:40:60
  TRACK 997 AUDIO
    TITLE "0:"
    INDEX 01 22:43:29
  TRACK 998 AUDIO
    TITLE "34:cjc160_2097"
    INDEX 01 22:43:66
  TRACK 999 AUDIO
    TITLE "0:"
    INDEX 01 22:47:39
  TRACK 1000 AUDIO
    TITLE "35:cjc160_2098"
    INDEX 01 22:47:62
  TRACK 1001 AUDIO
    TITLE "0:"
    INDEX 01 22:51:33
